<?xml version="1.0" encoding="utf-8"?>
<!-- Generator: Adobe Illustrator 17.0.0, SVG Export Plug-In . SVG Version: 6.00 Build 0)  -->
<!DOCTYPE svg PUBLIC "-//W3C//DTD SVG 1.1//EN" "http://www.w3.org/Graphics/SVG/1.1/DTD/svg11.dtd">
<svg version="1.1" id="Calque_1" xmlns="http://www.w3.org/2000/svg" xmlns:xlink="http://www.w3.org/1999/xlink" x="0px" y="0px"
	 width="480.594px" height="36.452px" viewBox="0 0 480.594 36.452" enable-background="new 0 0 480.594 36.452"
	 xml:space="preserve">
<g>
	<path fill="#8E001C" d="M25.602,35.852v-2.5c-1.6,1.899-3.45,2.85-6.351,2.85c-2.7,0-5-1.05-6.55-2.8
		c-1.9-2.15-2.25-4.75-2.25-9.251c0-4.4,0.35-7.05,2.15-9.2c1.45-1.75,3.851-2.85,6.601-2.85s4.7,0.95,6.3,2.8v-3.05
		c0-2.35-0.45-3.95-1.85-5.4c-1.35-1.35-3.15-1.85-5.3-1.85h-6.3c-2.15,0-3.85,0.45-5.25,1.85c-1.5,1.5-1.85,3-1.85,5.4v15.601
		c0,2.8,0.55,3.95,2.5,5.5l-3.5,3.5C1,34.051,0,32.152,0,27.702V11.801C0,8.05,0.85,5.2,2.95,3.05C5.05,0.95,7.9,0.1,11.551,0.1h7.3
		c3.55,0,6.451,0.85,8.551,2.95c2.15,2.15,3,5,3,8.75v24.151L25.602,35.852z M20.401,16.401c-4.2,0-5.05,3.45-5.05,7.75
		c0,4.301,0.85,7.701,5.05,7.701s5.1-3.4,5.1-7.701C25.501,19.851,24.602,16.401,20.401,16.401z"/>
	<path fill="#8E001C" d="M51.9,16.451c-1.15-1.15-2.05-1.7-3.8-1.7c-2.75,0-5.05,2.2-5.05,5.7v15.401h-5.1V10.5h5v2.75
		c1.3-1.8,3.9-3.05,6.75-3.05c2.45,0,4.3,0.65,6.051,2.4L51.9,16.451z"/>
	<path fill="#8E001C" d="M62.35,24.651c0,4.351,2.3,7.101,6.451,7.101c2.85,0,4.35-0.8,6.15-2.6l3.25,3.05
		c-2.6,2.6-5.05,3.95-9.5,3.95c-6.351,0-11.401-3.351-11.401-13.001c0-8.2,4.25-12.95,10.751-12.95c6.8,0,10.75,5,10.75,12.2v2.25
		H62.35z M73.05,17.651c-0.8-1.9-2.6-3.2-5-3.2c-2.4,0-4.25,1.3-5.05,3.2c-0.5,1.15-0.6,1.9-0.65,3.45H73.75
		C73.701,19.551,73.55,18.801,73.05,17.651z"/>
	<path fill="#8E001C" d="M94.05,36.152c-4.15,0-7.651-0.7-10.651-3.65l3.35-3.35c2.05,2.1,4.8,2.649,7.301,2.649
		c3.1,0,5.55-1.1,5.55-3.5c0-1.7-0.95-2.8-3.4-3l-4.05-0.351c-4.75-0.399-7.5-2.55-7.5-7c0-4.951,4.25-7.75,9.551-7.75
		c3.8,0,7.05,0.8,9.4,2.85l-3.2,3.25c-1.6-1.35-3.85-1.85-6.25-1.85c-3.05,0-4.6,1.35-4.6,3.25c0,1.5,0.8,2.65,3.5,2.9l4,0.35
		c4.75,0.4,7.55,2.65,7.55,7.15C104.6,33.402,100.1,36.152,94.05,36.152z"/>
	<path fill="#8E001C" d="M128.05,33.152c-1.65,1.7-4.15,3-7.601,3s-5.9-1.3-7.55-3c-2.4-2.5-3-5.7-3-10.001c0-4.25,0.6-7.45,3-9.95
		c1.65-1.7,4.1-3,7.55-3s5.95,1.3,7.601,3c2.4,2.5,3,5.7,3,9.95C131.05,27.452,130.45,30.652,128.05,33.152z M124.199,16.201
		c-0.95-0.95-2.25-1.45-3.75-1.45s-2.75,0.5-3.7,1.45c-1.55,1.55-1.75,4.2-1.75,6.95s0.2,5.4,1.75,6.95c0.95,0.95,2.2,1.5,3.7,1.5
		s2.8-0.55,3.75-1.5c1.55-1.55,1.75-4.2,1.75-6.95S125.75,17.751,124.199,16.201z"/>
	<path fill="#8E001C" d="M153.549,35.852v-2.551c-1.75,1.9-4.2,2.851-6.75,2.851c-2.6,0-4.75-0.85-6.25-2.3
		c-1.95-1.9-2.55-4.301-2.55-7.15V10.5h5.1v15.451c0,3.95,2.25,5.649,5.101,5.649s5.25-1.75,5.25-5.649V10.5h5.101v25.352H153.549z"
		/>
	<path fill="#8E001C" d="M180.898,16.451c-1.15-1.15-2.05-1.7-3.8-1.7c-2.75,0-5.05,2.2-5.05,5.7v15.401h-5.1V10.5h5v2.75
		c1.3-1.8,3.9-3.05,6.75-3.05c2.45,0,4.3,0.65,6.051,2.4L180.898,16.451z"/>
	<path fill="#8E001C" d="M197.598,36.152c-5.7,0-11.301-3.5-11.301-13.001c0-9.5,5.601-12.95,11.301-12.95c3.5,0,5.951,1,8.351,3.55
		l-3.5,3.4c-1.6-1.75-2.851-2.4-4.851-2.4c-1.95,0-3.6,0.8-4.7,2.25c-1.1,1.4-1.5,3.2-1.5,6.15c0,2.95,0.4,4.801,1.5,6.2
		c1.1,1.45,2.75,2.25,4.7,2.25c2,0,3.25-0.649,4.851-2.399l3.5,3.35C203.549,35.102,201.099,36.152,197.598,36.152z"/>
	<path fill="#8E001C" d="M215.047,24.651c0,4.351,2.3,7.101,6.451,7.101c2.85,0,4.35-0.8,6.15-2.6l3.25,3.05
		c-2.6,2.6-5.05,3.95-9.5,3.95c-6.351,0-11.401-3.351-11.401-13.001c0-8.2,4.25-12.95,10.751-12.95c6.8,0,10.75,5,10.75,12.2v2.25
		H215.047z M225.748,17.651c-0.8-1.9-2.6-3.2-5-3.2c-2.4,0-4.25,1.3-5.05,3.2c-0.5,1.15-0.6,1.9-0.65,3.45h11.401
		C226.398,19.551,226.248,18.801,225.748,17.651z"/>
	<path fill="#424242" d="M256.445,14.851v21.001h-5.1V14.851h-2.9v-3.9h2.9v-3.9c0-3.65,2.2-7.05,6.951-7.05h3.2v4.35h-2.25
		c-1.9,0-2.801,1.1-2.801,2.95v3.65h5.051v3.9H256.445z"/>
	<path fill="#424242" d="M283.047,33.152c-1.65,1.7-4.15,3-7.602,3c-3.449,0-5.9-1.3-7.55-3c-2.4-2.5-3.001-5.7-3.001-10.001
		c0-4.25,0.601-7.45,3.001-9.95c1.649-1.7,4.101-3,7.55-3c3.451,0,5.951,1.3,7.602,3c2.399,2.5,3,5.7,3,9.95
		C286.047,27.452,285.446,30.652,283.047,33.152z M279.195,16.201c-0.949-0.95-2.25-1.45-3.75-1.45s-2.75,0.5-3.699,1.45
		c-1.551,1.55-1.75,4.2-1.75,6.95s0.199,5.4,1.75,6.95c0.949,0.95,2.199,1.5,3.699,1.5s2.801-0.55,3.75-1.5
		c1.551-1.55,1.751-4.2,1.751-6.95S280.746,17.751,279.195,16.201z"/>
	<path fill="#424242" d="M308.245,35.852v-2.551c-1.75,1.9-4.2,2.851-6.751,2.851c-2.6,0-4.75-0.85-6.25-2.3
		c-1.949-1.9-2.55-4.301-2.55-7.15V10.5h5.101v15.451c0,3.95,2.25,5.649,5.1,5.649c2.851,0,5.25-1.75,5.25-5.649V10.5h5.102v25.352
		H308.245z"/>
	<path fill="#424242" d="M336.795,35.852V20.401c0-3.95-2.25-5.65-5.1-5.65c-2.851,0-5.251,1.75-5.251,5.65v15.451h-5.101V10.5
		h5.001v2.55c1.75-1.9,4.2-2.85,6.75-2.85c2.601,0,4.751,0.85,6.251,2.3c1.949,1.9,2.55,4.3,2.55,7.15v16.201H336.795z"/>
	<path fill="#424242" d="M364.295,35.852v-2.7c-1.9,2.3-3.951,3-6.701,3c-2.55,0-4.8-0.85-6.2-2.25
		c-2.55-2.551-2.851-6.9-2.851-10.751c0-3.85,0.301-8.15,2.851-10.7c1.4-1.4,3.601-2.25,6.15-2.25c2.7,0,4.8,0.65,6.65,2.85V0.25
		h5.101v35.602H364.295z M358.944,14.751c-4.601,0-5.3,3.9-5.3,8.4s0.699,8.45,5.3,8.45s5.25-3.95,5.25-8.45
		S363.545,14.751,358.944,14.751z"/>
	<path fill="#424242" d="M391.045,35.852v-2.301c-1.851,1.851-3.601,2.601-6.751,2.601s-5.251-0.75-6.8-2.3
		c-1.301-1.351-2.001-3.301-2.001-5.451c0-4.25,2.95-7.3,8.751-7.3h6.7v-1.8c0-3.2-1.601-4.75-5.55-4.75
		c-2.801,0-4.15,0.65-5.551,2.45l-3.35-3.15c2.399-2.8,4.899-3.65,9.1-3.65c6.951,0,10.451,2.95,10.451,8.7v16.951H391.045z
		 M390.944,24.651h-5.95c-3,0-4.551,1.351-4.551,3.65s1.45,3.601,4.65,3.601c1.95,0,3.4-0.15,4.75-1.45
		c0.75-0.75,1.101-1.95,1.101-3.75V24.651z"/>
	<path fill="#424242" d="M411.443,35.852c-4.75,0-6.949-3.4-6.949-7.051V14.851h-2.9v-3.9h2.9V3.25h5.1v7.701h4.9v3.9h-4.9v13.701
		c0,1.851,0.9,2.95,2.801,2.95h2.1v4.351H411.443z"/>
	<path fill="#424242" d="M420.844,5.5V0.1h5.4v5.4H420.844z M420.993,35.852V10.5h5.101v25.352H420.993z"/>
	<path fill="#424242" d="M451.145,33.152c-1.65,1.7-4.15,3-7.602,3c-3.449,0-5.9-1.3-7.55-3c-2.4-2.5-3.001-5.7-3.001-10.001
		c0-4.25,0.601-7.45,3.001-9.95c1.649-1.7,4.101-3,7.55-3c3.451,0,5.951,1.3,7.602,3c2.399,2.5,3,5.7,3,9.95
		C454.145,27.452,453.544,30.652,451.145,33.152z M447.293,16.201c-0.949-0.95-2.25-1.45-3.75-1.45s-2.75,0.5-3.699,1.45
		c-1.551,1.55-1.75,4.2-1.75,6.95s0.199,5.4,1.75,6.95c0.949,0.95,2.199,1.5,3.699,1.5s2.801-0.55,3.75-1.5
		c1.551-1.55,1.751-4.2,1.751-6.95S448.844,17.751,447.293,16.201z"/>
	<path fill="#424242" d="M475.492,35.852V20.401c0-3.95-2.25-5.65-5.1-5.65s-5.25,1.75-5.25,5.65v15.451h-5.101V10.5h5.001v2.55
		c1.75-1.9,4.199-2.85,6.75-2.85c2.6,0,4.75,0.85,6.25,2.3c1.95,1.9,2.551,4.3,2.551,7.15v16.201H475.492z"/>
</g>
</svg>
